# XSI Wavefront OBJ Export v3.0
# File Created: Mon Apr 04 17:29:09 2016
# XSI Version: 11.0.525.0
o Bomba
# Hierarchy (from self to top father)
g Bomba

#begin 98 vertices
v -0.265239 -0.265239 -0.265239
v 0.265239 -0.265239 -0.265239
v -0.265239 0.265239 -0.265239
v 0.265239 0.265239 -0.265239
v -0.265239 -0.265239 0.265239
v 0.265239 -0.265239 0.265239
v -0.265239 0.265239 0.265239
v 0.265239 0.265239 0.265239
v -0.321615 0.000000 -0.321615
v 0.000000 0.321615 -0.321615
v 0.321615 0.000000 -0.321615
v 0.000000 -0.321615 -0.321615
v 0.321615 -0.321615 0.000000
v 0.000000 -0.321615 0.321615
v -0.321615 -0.321615 0.000000
v -0.321615 0.000000 0.321615
v -0.321615 0.321615 0.000000
v 0.321615 0.321615 0.000000
v 0.321615 0.000000 0.321615
v 0.000000 0.321615 0.321615
v 0.000000 0.000000 -0.439236
v 0.000000 -0.439236 0.000000
v -0.439236 0.000000 0.000000
v 0.439236 0.000000 0.000000
v 0.000000 0.439236 0.000000
v 0.000000 0.000000 0.439236
v -0.299479 -0.151042 -0.299479
v -0.175347 0.000000 -0.409722
v 0.000000 -0.175347 -0.409722
v -0.151042 -0.299479 -0.299479
v -0.151042 0.299479 -0.299479
v 0.000000 0.175347 -0.409722
v -0.299479 0.151042 -0.299479
v 0.299479 0.151042 -0.299479
v 0.175347 0.000000 -0.409722
v 0.151042 0.299479 -0.299479
v 0.151042 -0.299479 -0.299479
v 0.299479 -0.151042 -0.299479
v 0.000000 -0.409722 -0.175347
v -0.175347 -0.409722 0.000000
v -0.299479 -0.299479 -0.151042
v 0.299479 -0.299479 -0.151042
v 0.175347 -0.409722 0.000000
v 0.151042 -0.299479 0.299479
v 0.000000 -0.409722 0.175347
v 0.299479 -0.299479 0.151042
v -0.299479 -0.299479 0.151042
v -0.151042 -0.299479 0.299479
v -0.409722 -0.175347 0.000000
v -0.409722 0.000000 -0.175347
v -0.299479 -0.151042 0.299479
v -0.409722 0.000000 0.175347
v -0.299479 0.299479 0.151042
v -0.409722 0.175347 0.000000
v -0.299479 0.151042 0.299479
v -0.299479 0.299479 -0.151042
v 0.409722 0.000000 -0.175347
v 0.409722 -0.175347 0.000000
v 0.299479 0.299479 -0.151042
v 0.409722 0.175347 0.000000
v 0.299479 0.151042 0.299479
v 0.409722 0.000000 0.175347
v 0.299479 0.299479 0.151042
v 0.299479 -0.151042 0.299479
v -0.175347 0.409722 0.000000
v 0.000000 0.409722 -0.175347
v -0.151042 0.299479 0.299479
v 0.000000 0.409722 0.175347
v 0.175347 0.409722 0.000000
v 0.151042 0.299479 0.299479
v 0.000000 -0.175347 0.409722
v -0.175347 0.000000 0.409722
v 0.175347 0.000000 0.409722
v 0.000000 0.175347 0.409722
v -0.163194 -0.163194 -0.381944
v -0.163194 0.163194 -0.381944
v 0.163194 0.163194 -0.381944
v 0.163194 -0.163194 -0.381944
v -0.163194 -0.381944 -0.163194
v 0.163194 -0.381944 -0.163194
v 0.163194 -0.381944 0.163194
v -0.163194 -0.381944 0.163194
v -0.381944 -0.163194 -0.163194
v -0.381944 -0.163194 0.163194
v -0.381944 0.163194 0.163194
v -0.381944 0.163194 -0.163194
v 0.381944 -0.163194 -0.163194
v 0.381944 0.163194 -0.163194
v 0.381944 0.163194 0.163194
v 0.381944 -0.163194 0.163194
v -0.163194 0.381944 -0.163194
v -0.163194 0.381944 0.163194
v 0.163194 0.381944 0.163194
v 0.163194 0.381944 -0.163194
v -0.163194 -0.163194 0.381944
v 0.163194 -0.163194 0.381944
v 0.163194 0.163194 0.381944
v -0.163194 0.163194 0.381944
#end 98 vertices

#begin 384 normals
vn 0.000000 0.353825 0.935312
vn -0.338104 0.338104 0.878277
vn -0.328920 0.667762 0.667762
vn 0.000000 0.707107 0.707107
vn -0.353825 -0.000000 0.935312
vn -0.338104 0.338104 0.878277
vn 0.000000 0.353825 0.935312
vn 0.000000 0.000000 1.000000
vn -0.667762 0.328920 0.667762
vn -0.338104 0.338104 0.878277
vn -0.353825 -0.000000 0.935312
vn -0.707107 0.000000 0.707107
vn -0.328920 0.667762 0.667762
vn -0.338104 0.338104 0.878277
vn -0.667762 0.328920 0.667762
vn -0.577350 0.577350 0.577350
vn 0.353825 -0.000000 0.935312
vn 0.338104 0.338104 0.878277
vn 0.667762 0.328920 0.667762
vn 0.707107 0.000000 0.707107
vn 0.000000 0.353825 0.935312
vn 0.338104 0.338104 0.878277
vn 0.353825 -0.000000 0.935312
vn 0.000000 0.000000 1.000000
vn 0.328920 0.667762 0.667762
vn 0.338104 0.338104 0.878277
vn 0.000000 0.353825 0.935312
vn 0.000000 0.707107 0.707107
vn 0.667762 0.328920 0.667762
vn 0.338104 0.338104 0.878277
vn 0.328920 0.667762 0.667762
vn 0.577350 0.577350 0.577350
vn -0.000000 -0.353825 0.935312
vn 0.338104 -0.338104 0.878277
vn 0.328920 -0.667762 0.667762
vn 0.000000 -0.707107 0.707107
vn 0.353825 -0.000000 0.935312
vn 0.338104 -0.338104 0.878277
vn -0.000000 -0.353825 0.935312
vn 0.000000 0.000000 1.000000
vn 0.667762 -0.328920 0.667762
vn 0.338104 -0.338104 0.878277
vn 0.353825 -0.000000 0.935312
vn 0.707107 0.000000 0.707107
vn 0.328920 -0.667762 0.667762
vn 0.338104 -0.338104 0.878277
vn 0.667762 -0.328920 0.667762
vn 0.577350 -0.577350 0.577350
vn -0.353825 -0.000000 0.935312
vn -0.338104 -0.338104 0.878277
vn -0.667762 -0.328920 0.667762
vn -0.707107 0.000000 0.707107
vn -0.000000 -0.353825 0.935312
vn -0.338104 -0.338104 0.878277
vn -0.353825 -0.000000 0.935312
vn 0.000000 0.000000 1.000000
vn -0.328920 -0.667762 0.667762
vn -0.338104 -0.338104 0.878277
vn -0.000000 -0.353825 0.935312
vn 0.000000 -0.707107 0.707107
vn -0.667762 -0.328920 0.667762
vn -0.338104 -0.338104 0.878277
vn -0.328920 -0.667762 0.667762
vn -0.577350 -0.577350 0.577350
vn 0.353825 0.935312 0.000000
vn 0.338104 0.878277 -0.338104
vn 0.667762 0.667762 -0.328920
vn 0.707107 0.707107 0.000000
vn -0.000000 0.935312 -0.353825
vn 0.338104 0.878277 -0.338104
vn 0.353825 0.935312 0.000000
vn 0.000000 1.000000 0.000000
vn 0.328920 0.667762 -0.667762
vn 0.338104 0.878277 -0.338104
vn -0.000000 0.935312 -0.353825
vn 0.000000 0.707107 -0.707107
vn 0.667762 0.667762 -0.328920
vn 0.338104 0.878277 -0.338104
vn 0.328920 0.667762 -0.667762
vn 0.577350 0.577350 -0.577350
vn -0.000000 0.935312 0.353825
vn 0.338104 0.878277 0.338104
vn 0.328920 0.667762 0.667762
vn 0.000000 0.707107 0.707107
vn 0.353825 0.935312 0.000000
vn 0.338104 0.878277 0.338104
vn -0.000000 0.935312 0.353825
vn 0.000000 1.000000 0.000000
vn 0.667762 0.667762 0.328920
vn 0.338104 0.878277 0.338104
vn 0.353825 0.935312 0.000000
vn 0.707107 0.707107 0.000000
vn 0.328920 0.667762 0.667762
vn 0.338104 0.878277 0.338104
vn 0.667762 0.667762 0.328920
vn 0.577350 0.577350 0.577350
vn -0.353825 0.935312 -0.000000
vn -0.338104 0.878277 0.338104
vn -0.667762 0.667762 0.328920
vn -0.707107 0.707107 0.000000
vn -0.000000 0.935312 0.353825
vn -0.338104 0.878277 0.338104
vn -0.353825 0.935312 -0.000000
vn 0.000000 1.000000 0.000000
vn -0.328920 0.667762 0.667762
vn -0.338104 0.878277 0.338104
vn -0.000000 0.935312 0.353825
vn 0.000000 0.707107 0.707107
vn -0.667762 0.667762 0.328920
vn -0.338104 0.878277 0.338104
vn -0.328920 0.667762 0.667762
vn -0.577350 0.577350 0.577350
vn -0.000000 0.935312 -0.353825
vn -0.338104 0.878277 -0.338104
vn -0.328920 0.667762 -0.667762
vn 0.000000 0.707107 -0.707107
vn -0.353825 0.935312 -0.000000
vn -0.338104 0.878277 -0.338104
vn -0.000000 0.935312 -0.353825
vn 0.000000 1.000000 0.000000
vn -0.577350 -0.577350 -0.577350
vn -0.667762 -0.328920 -0.667762
vn -0.338104 -0.338104 -0.878277
vn -0.328920 -0.667762 -0.667762
vn -0.707107 0.000000 -0.707107
vn -0.353825 0.000000 -0.935312
vn -0.338104 -0.338104 -0.878277
vn -0.667762 -0.328920 -0.667762
vn 0.000000 0.000000 -1.000000
vn 0.000000 -0.353825 -0.935312
vn -0.338104 -0.338104 -0.878277
vn -0.353825 0.000000 -0.935312
vn 0.000000 -0.707107 -0.707107
vn -0.328920 -0.667762 -0.667762
vn -0.338104 -0.338104 -0.878277
vn 0.000000 -0.353825 -0.935312
vn -0.577350 0.577350 -0.577350
vn -0.328920 0.667762 -0.667762
vn -0.338104 0.338104 -0.878277
vn -0.667762 0.328920 -0.667762
vn 0.000000 0.707107 -0.707107
vn 0.000000 0.353825 -0.935312
vn -0.338104 0.338104 -0.878277
vn -0.328920 0.667762 -0.667762
vn 0.000000 0.000000 -1.000000
vn -0.353825 0.000000 -0.935312
vn -0.338104 0.338104 -0.878277
vn 0.000000 0.353825 -0.935312
vn -0.707107 0.000000 -0.707107
vn -0.667762 0.328920 -0.667762
vn -0.338104 0.338104 -0.878277
vn -0.353825 0.000000 -0.935312
vn 0.577350 0.577350 -0.577350
vn 0.667762 0.328920 -0.667762
vn 0.338104 0.338104 -0.878277
vn 0.328920 0.667762 -0.667762
vn 0.707107 0.000000 -0.707107
vn 0.353825 -0.000000 -0.935312
vn 0.338104 0.338104 -0.878277
vn 0.667762 0.328920 -0.667762
vn 0.000000 0.000000 -1.000000
vn 0.000000 0.353825 -0.935312
vn 0.338104 0.338104 -0.878277
vn 0.353825 -0.000000 -0.935312
vn 0.000000 0.707107 -0.707107
vn 0.328920 0.667762 -0.667762
vn 0.338104 0.338104 -0.878277
vn 0.000000 0.353825 -0.935312
vn 0.577350 -0.577350 -0.577350
vn 0.328920 -0.667762 -0.667762
vn 0.338104 -0.338104 -0.878277
vn 0.667762 -0.328920 -0.667762
vn 0.000000 -0.707107 -0.707107
vn 0.000000 -0.353825 -0.935312
vn 0.338104 -0.338104 -0.878277
vn 0.328920 -0.667762 -0.667762
vn 0.000000 0.000000 -1.000000
vn 0.353825 -0.000000 -0.935312
vn 0.338104 -0.338104 -0.878277
vn 0.000000 -0.353825 -0.935312
vn 0.707107 0.000000 -0.707107
vn 0.667762 -0.328920 -0.667762
vn 0.338104 -0.338104 -0.878277
vn 0.353825 -0.000000 -0.935312
vn -0.577350 -0.577350 -0.577350
vn -0.328920 -0.667762 -0.667762
vn -0.338104 -0.878277 -0.338104
vn -0.667762 -0.667762 -0.328920
vn 0.000000 -0.707107 -0.707107
vn 0.000000 -0.935312 -0.353825
vn -0.338104 -0.878277 -0.338104
vn -0.328920 -0.667762 -0.667762
vn 0.000000 -1.000000 0.000000
vn -0.353825 -0.935312 0.000000
vn -0.338104 -0.878277 -0.338104
vn 0.000000 -0.935312 -0.353825
vn -0.707107 -0.707107 0.000000
vn -0.667762 -0.667762 -0.328920
vn -0.338104 -0.878277 -0.338104
vn -0.353825 -0.935312 0.000000
vn 0.577350 -0.577350 -0.577350
vn 0.667762 -0.667762 -0.328920
vn 0.338104 -0.878277 -0.338104
vn 0.328920 -0.667762 -0.667762
vn 0.707107 -0.707107 0.000000
vn 0.353825 -0.935312 0.000000
vn 0.338104 -0.878277 -0.338104
vn 0.667762 -0.667762 -0.328920
vn 0.000000 -1.000000 0.000000
vn 0.000000 -0.935312 -0.353825
vn 0.338104 -0.878277 -0.338104
vn 0.353825 -0.935312 0.000000
vn 0.000000 -0.707107 -0.707107
vn 0.328920 -0.667762 -0.667762
vn 0.338104 -0.878277 -0.338104
vn 0.000000 -0.935312 -0.353825
vn 0.577350 -0.577350 0.577350
vn 0.328920 -0.667762 0.667762
vn 0.338104 -0.878277 0.338104
vn 0.667762 -0.667762 0.328920
vn 0.000000 -0.707107 0.707107
vn -0.000000 -0.935312 0.353825
vn 0.338104 -0.878277 0.338104
vn 0.328920 -0.667762 0.667762
vn 0.000000 -1.000000 0.000000
vn 0.353825 -0.935312 0.000000
vn 0.338104 -0.878277 0.338104
vn -0.000000 -0.935312 0.353825
vn 0.707107 -0.707107 0.000000
vn 0.667762 -0.667762 0.328920
vn 0.338104 -0.878277 0.338104
vn 0.353825 -0.935312 0.000000
vn -0.577350 -0.577350 0.577350
vn -0.667762 -0.667762 0.328920
vn -0.338104 -0.878277 0.338104
vn -0.328920 -0.667762 0.667762
vn -0.707107 -0.707107 0.000000
vn -0.353825 -0.935312 0.000000
vn -0.338104 -0.878277 0.338104
vn -0.667762 -0.667762 0.328920
vn 0.000000 -1.000000 0.000000
vn -0.000000 -0.935312 0.353825
vn -0.338104 -0.878277 0.338104
vn -0.353825 -0.935312 0.000000
vn 0.000000 -0.707107 0.707107
vn -0.328920 -0.667762 0.667762
vn -0.338104 -0.878277 0.338104
vn -0.000000 -0.935312 0.353825
vn -0.577350 -0.577350 -0.577350
vn -0.667762 -0.667762 -0.328920
vn -0.878277 -0.338104 -0.338104
vn -0.667762 -0.328920 -0.667762
vn -0.707107 -0.707107 0.000000
vn -0.935312 -0.353825 0.000000
vn -0.878277 -0.338104 -0.338104
vn -0.667762 -0.667762 -0.328920
vn -1.000000 0.000000 0.000000
vn -0.935312 0.000000 -0.353825
vn -0.878277 -0.338104 -0.338104
vn -0.935312 -0.353825 0.000000
vn -0.707107 0.000000 -0.707107
vn -0.667762 -0.328920 -0.667762
vn -0.878277 -0.338104 -0.338104
vn -0.935312 0.000000 -0.353825
vn -0.577350 -0.577350 0.577350
vn -0.667762 -0.328920 0.667762
vn -0.878277 -0.338104 0.338104
vn -0.667762 -0.667762 0.328920
vn -0.707107 0.000000 0.707107
vn -0.935312 0.000000 0.353825
vn -0.878277 -0.338104 0.338104
vn -0.667762 -0.328920 0.667762
vn -1.000000 0.000000 0.000000
vn -0.935312 -0.353825 0.000000
vn -0.878277 -0.338104 0.338104
vn -0.935312 0.000000 0.353825
vn -0.707107 -0.707107 0.000000
vn -0.667762 -0.667762 0.328920
vn -0.878277 -0.338104 0.338104
vn -0.935312 -0.353825 0.000000
vn -0.577350 0.577350 0.577350
vn -0.667762 0.667762 0.328920
vn -0.878277 0.338104 0.338104
vn -0.667762 0.328920 0.667762
vn -0.707107 0.707107 0.000000
vn -0.935312 0.353825 -0.000000
vn -0.878277 0.338104 0.338104
vn -0.667762 0.667762 0.328920
vn -1.000000 0.000000 0.000000
vn -0.935312 0.000000 0.353825
vn -0.878277 0.338104 0.338104
vn -0.935312 0.353825 -0.000000
vn -0.707107 0.000000 0.707107
vn -0.667762 0.328920 0.667762
vn -0.878277 0.338104 0.338104
vn -0.935312 0.000000 0.353825
vn -0.577350 0.577350 -0.577350
vn -0.667762 0.328920 -0.667762
vn -0.878277 0.338104 -0.338104
vn -0.667762 0.667762 -0.328920
vn -0.707107 0.000000 -0.707107
vn -0.935312 0.000000 -0.353825
vn -0.878277 0.338104 -0.338104
vn -0.667762 0.328920 -0.667762
vn -1.000000 0.000000 0.000000
vn -0.935312 0.353825 -0.000000
vn -0.878277 0.338104 -0.338104
vn -0.935312 0.000000 -0.353825
vn -0.707107 0.707107 0.000000
vn -0.667762 0.667762 -0.328920
vn -0.878277 0.338104 -0.338104
vn -0.935312 0.353825 -0.000000
vn 0.577350 -0.577350 -0.577350
vn 0.667762 -0.328920 -0.667762
vn 0.878277 -0.338104 -0.338104
vn 0.667762 -0.667762 -0.328920
vn 0.707107 0.000000 -0.707107
vn 0.935312 0.000000 -0.353825
vn 0.878277 -0.338104 -0.338104
vn 0.667762 -0.328920 -0.667762
vn 1.000000 0.000000 0.000000
vn 0.935312 -0.353825 0.000000
vn 0.878277 -0.338104 -0.338104
vn 0.935312 0.000000 -0.353825
vn 0.707107 -0.707107 0.000000
vn 0.667762 -0.667762 -0.328920
vn 0.878277 -0.338104 -0.338104
vn 0.935312 -0.353825 0.000000
vn 0.577350 0.577350 -0.577350
vn 0.667762 0.667762 -0.328920
vn 0.878277 0.338104 -0.338104
vn 0.667762 0.328920 -0.667762
vn 0.707107 0.707107 0.000000
vn 0.935312 0.353825 0.000000
vn 0.878277 0.338104 -0.338104
vn 0.667762 0.667762 -0.328920
vn 1.000000 0.000000 0.000000
vn 0.935312 0.000000 -0.353825
vn 0.878277 0.338104 -0.338104
vn 0.935312 0.353825 0.000000
vn 0.707107 0.000000 -0.707107
vn 0.667762 0.328920 -0.667762
vn 0.878277 0.338104 -0.338104
vn 0.935312 0.000000 -0.353825
vn 0.577350 0.577350 0.577350
vn 0.667762 0.328920 0.667762
vn 0.878277 0.338104 0.338104
vn 0.667762 0.667762 0.328920
vn 0.707107 0.000000 0.707107
vn 0.935312 -0.000000 0.353825
vn 0.878277 0.338104 0.338104
vn 0.667762 0.328920 0.667762
vn 1.000000 0.000000 0.000000
vn 0.935312 0.353825 0.000000
vn 0.878277 0.338104 0.338104
vn 0.935312 -0.000000 0.353825
vn 0.707107 0.707107 0.000000
vn 0.667762 0.667762 0.328920
vn 0.878277 0.338104 0.338104
vn 0.935312 0.353825 0.000000
vn 0.577350 -0.577350 0.577350
vn 0.667762 -0.667762 0.328920
vn 0.878277 -0.338104 0.338104
vn 0.667762 -0.328920 0.667762
vn 0.707107 -0.707107 0.000000
vn 0.935312 -0.353825 0.000000
vn 0.878277 -0.338104 0.338104
vn 0.667762 -0.667762 0.328920
vn 1.000000 0.000000 0.000000
vn 0.935312 -0.000000 0.353825
vn 0.878277 -0.338104 0.338104
vn 0.935312 -0.353825 0.000000
vn 0.707107 0.000000 0.707107
vn 0.667762 -0.328920 0.667762
vn 0.878277 -0.338104 0.338104
vn 0.935312 -0.000000 0.353825
vn -0.577350 0.577350 -0.577350
vn -0.667762 0.667762 -0.328920
vn -0.338104 0.878277 -0.338104
vn -0.328920 0.667762 -0.667762
vn -0.707107 0.707107 0.000000
vn -0.353825 0.935312 -0.000000
vn -0.338104 0.878277 -0.338104
vn -0.667762 0.667762 -0.328920
#end 384 vertex normals

#begin texture vertices
vt 0.702710 0.973606 0.000000
vt 0.047979 0.025871 0.000000
vt 0.704376 0.025966 0.000000
vt 0.327153 0.025871 0.000000
vt 0.702710 0.694431 0.000000
vt 0.702978 0.640094 0.000000
vt 0.423535 0.973606 0.000000
vt 0.425202 0.026089 0.000000
vt 0.047722 0.973599 0.000000
vt 0.423804 0.639539 0.000000
vt 0.423535 0.694431 0.000000
vt 0.326897 0.973599 0.000000
vt 0.704500 0.305141 0.000000
vt 0.047979 0.305046 0.000000
vt 0.047650 0.361011 0.000000
vt 0.327153 0.305046 0.000000
vt 0.703533 0.360920 0.000000
vt 0.326825 0.361011 0.000000
vt 0.047722 0.694425 0.000000
vt 0.425325 0.305264 0.000000
vt 0.047650 0.640185 0.000000
vt 0.424359 0.360365 0.000000
vt 0.326897 0.694425 0.000000
vt 0.326825 0.640185 0.000000
vt 0.563123 0.993986 0.000000
vt 0.564780 0.005648 0.000000
vt 0.403155 0.834018 0.000000
vt 0.187310 0.993979 0.000000
vt 0.563350 0.660197 0.000000
vt 0.563123 0.674051 0.000000
vt 0.187566 0.005491 0.000000
vt 0.723090 0.834018 0.000000
vt 0.347533 0.165459 0.000000
vt 0.723635 0.500547 0.000000
vt 0.187237 0.340631 0.000000
vt 0.187566 0.325426 0.000000
vt 0.724818 0.165545 0.000000
vt 0.027598 0.165459 0.000000
vt 0.564921 0.325583 0.000000
vt 0.027270 0.500598 0.000000
vt 0.027342 0.834012 0.000000
vt 0.404883 0.165686 0.000000
vt 0.347277 0.834012 0.000000
vt 0.403701 0.499912 0.000000
vt 0.347205 0.500598 0.000000
vt 0.563986 0.340262 0.000000
vt 0.187237 0.660565 0.000000
vt 0.187310 0.674044 0.000000
vt 0.563123 0.834018 0.000000
vt 0.187566 0.165459 0.000000
vt 0.564851 0.165615 0.000000
vt 0.563668 0.500230 0.000000
vt 0.187310 0.834012 0.000000
vt 0.187237 0.500598 0.000000
vt 0.640630 0.987217 0.000000
vt 0.642291 0.012382 0.000000
vt 0.563123 0.912999 0.000000
vt 0.642104 0.834018 0.000000
vt 0.110058 0.012260 0.000000
vt 0.716321 0.911526 0.000000
vt 0.409924 0.911526 0.000000
vt 0.109802 0.987211 0.000000
vt 0.484142 0.834018 0.000000
vt 0.487275 0.012451 0.000000
vt 0.485615 0.987217 0.000000
vt 0.485615 0.680820 0.000000
vt 0.485856 0.653274 0.000000
vt 0.563123 0.755037 0.000000
vt 0.264817 0.987211 0.000000
vt 0.409924 0.756511 0.000000
vt 0.716321 0.756511 0.000000
vt 0.265074 0.012260 0.000000
vt 0.640871 0.653582 0.000000
vt 0.640630 0.680820 0.000000
vt 0.187566 0.086478 0.000000
vt 0.108585 0.165459 0.000000
vt 0.718015 0.088040 0.000000
vt 0.034367 0.087951 0.000000
vt 0.340765 0.087951 0.000000
vt 0.716713 0.578042 0.000000
vt 0.266547 0.165459 0.000000
vt 0.265074 0.318657 0.000000
vt 0.264745 0.347399 0.000000
vt 0.187566 0.244440 0.000000
vt 0.717021 0.423027 0.000000
vt 0.340765 0.242966 0.000000
vt 0.034367 0.242966 0.000000
vt 0.718084 0.243055 0.000000
vt 0.109730 0.347399 0.000000
vt 0.110058 0.318657 0.000000
vt 0.643832 0.165580 0.000000
vt 0.564816 0.086634 0.000000
vt 0.642426 0.318780 0.000000
vt 0.034039 0.423090 0.000000
vt 0.564886 0.244596 0.000000
vt 0.411686 0.243190 0.000000
vt 0.034111 0.756504 0.000000
vt 0.485870 0.165650 0.000000
vt 0.034039 0.578106 0.000000
vt 0.487411 0.318848 0.000000
vt 0.034111 0.911520 0.000000
vt 0.411618 0.088175 0.000000
vt 0.563511 0.579210 0.000000
vt 0.642649 0.500386 0.000000
vt 0.410316 0.577433 0.000000
vt 0.340508 0.911520 0.000000
vt 0.484687 0.500072 0.000000
vt 0.486465 0.346877 0.000000
vt 0.340436 0.578106 0.000000
vt 0.563825 0.421249 0.000000
vt 0.340508 0.756504 0.000000
vt 0.410624 0.422418 0.000000
vt 0.340436 0.423090 0.000000
vt 0.641480 0.347185 0.000000
vt 0.108329 0.834012 0.000000
vt 0.187310 0.912993 0.000000
vt 0.109802 0.680813 0.000000
vt 0.109730 0.653797 0.000000
vt 0.187310 0.755031 0.000000
vt 0.266291 0.834012 0.000000
vt 0.264745 0.653797 0.000000
vt 0.264817 0.680813 0.000000
vt 0.187237 0.421617 0.000000
vt 0.108256 0.500598 0.000000
vt 0.266218 0.500598 0.000000
vt 0.187237 0.579579 0.000000
vt 0.638572 0.909468 0.000000
vt 0.487673 0.909468 0.000000
vt 0.487673 0.758569 0.000000
vt 0.638572 0.758569 0.000000
vt 0.112116 0.090009 0.000000
vt 0.263016 0.090009 0.000000
vt 0.263016 0.240908 0.000000
vt 0.112116 0.240908 0.000000
vt 0.640267 0.090132 0.000000
vt 0.640334 0.241032 0.000000
vt 0.489434 0.241098 0.000000
vt 0.489368 0.090199 0.000000
vt 0.638968 0.575829 0.000000
vt 0.488069 0.575529 0.000000
vt 0.488369 0.424630 0.000000
vt 0.639268 0.424930 0.000000
vt 0.111860 0.909462 0.000000
vt 0.111860 0.758562 0.000000
vt 0.262759 0.758562 0.000000
vt 0.262759 0.909462 0.000000
vt 0.111787 0.425148 0.000000
vt 0.262687 0.425148 0.000000
vt 0.262687 0.576048 0.000000
vt 0.111787 0.576048 0.000000
#end 150 texture vertices

#begin 96 faces
f 20/47/4 67/118/3 98/150/2 74/126/1 
f 26/54/8 74/126/7 98/150/6 72/124/5 
f 16/40/12 72/124/11 98/150/10 55/99/9 
f 7/21/16 55/99/15 98/150/14 67/118/13 
f 19/45/20 61/109/19 97/149/18 73/125/17 
f 26/54/24 73/125/23 97/149/22 74/126/21 
f 20/47/28 74/126/27 97/149/26 70/121/25 
f 8/24/32 70/121/31 97/149/30 61/109/29 
f 14/35/36 44/83/35 96/148/34 71/123/33 
f 26/54/40 71/123/39 96/148/38 73/125/37 
f 19/45/44 73/125/43 96/148/42 64/113/41 
f 6/18/48 64/113/47 96/148/46 44/83/45 
f 16/40/52 51/94/51 95/147/50 72/124/49 
f 26/54/56 72/124/55 95/147/54 71/123/53 
f 14/35/60 71/123/59 95/147/58 48/89/57 
f 5/15/64 48/89/63 95/147/62 51/94/61 
f 18/43/68 59/106/67 94/146/66 69/120/65 
f 25/53/72 69/120/71 94/146/70 66/116/69 
f 10/28/76 66/116/75 94/146/74 36/69/73 
f 4/12/80 36/69/79 94/146/78 59/106/77 
f 20/48/84 70/122/83 93/145/82 68/119/81 
f 25/53/88 68/119/87 93/145/86 69/120/85 
f 18/43/92 69/120/91 93/145/90 63/111/89 
f 8/23/96 63/111/95 93/145/94 70/122/93 
f 17/41/100 53/97/99 92/144/98 65/115/97 
f 25/53/104 65/115/103 92/144/102 68/119/101 
f 20/48/108 68/119/107 92/144/106 67/117/105 
f 7/19/112 67/117/111 92/144/110 53/97/109 
f 10/28/116 31/62/115 91/143/114 66/116/113 
f 25/53/120 66/116/119 91/143/118 65/115/117 
f 1/1/121 27/55/122 75/127/123 30/60/124 
f 9/25/125 28/57/126 75/127/127 27/55/128 
f 21/49/129 29/58/130 75/127/131 28/57/132 
f 12/32/133 30/60/134 75/127/135 29/58/136 
f 3/7/137 31/61/138 76/128/139 33/65/140 
f 10/27/141 32/63/142 76/128/143 31/61/144 
f 21/49/145 28/57/146 76/128/147 32/63/148 
f 9/25/149 33/65/150 76/128/151 28/57/152 
f 4/11/153 34/66/154 77/129/155 36/70/156 
f 11/30/157 35/68/158 77/129/159 34/66/160 
f 21/49/161 32/63/162 77/129/163 35/68/164 
f 10/27/165 36/70/166 77/129/167 32/63/168 
f 2/5/169 37/71/170 78/130/171 38/74/172 
f 12/32/173 29/58/174 78/130/175 37/71/176 
f 21/49/177 35/68/178 78/130/179 29/58/180 
f 11/30/181 38/74/182 78/130/183 35/68/184 
f 1/2/185 30/59/186 79/131/187 41/78/188 
f 12/31/189 39/75/190 79/131/191 30/59/192 
f 22/50/193 40/76/194 79/131/195 39/75/196 
f 15/38/197 41/78/198 79/131/199 40/76/200 
f 2/4/201 42/79/202 80/132/203 37/72/204 
f 13/33/205 43/81/206 80/132/207 42/79/208 
f 22/50/209 39/75/210 80/132/211 43/81/212 
f 12/31/213 37/72/214 80/132/215 39/75/216 
f 6/16/217 44/82/218 81/133/219 46/86/220 
f 14/36/221 45/84/222 81/133/223 44/82/224 
f 22/50/225 43/81/226 81/133/227 45/84/228 
f 13/33/229 46/86/230 81/133/231 43/81/232 
f 5/14/233 47/87/234 82/134/235 48/90/236 
f 15/38/237 40/76/238 82/134/239 47/87/240 
f 22/50/241 45/84/242 82/134/243 40/76/244 
f 14/36/245 48/90/246 82/134/247 45/84/248 
f 1/3/249 41/77/250 83/135/251 27/56/252 
f 15/37/253 49/91/254 83/135/255 41/77/256 
f 23/51/257 50/92/258 83/135/259 49/91/260 
f 9/26/261 27/56/262 83/135/263 50/92/264 
f 5/13/265 51/93/266 84/136/267 47/88/268 
f 16/39/269 52/95/270 84/136/271 51/93/272 
f 23/51/273 49/91/274 84/136/275 52/95/276 
f 15/37/277 47/88/278 84/136/279 49/91/280 
f 7/20/281 53/96/282 85/137/283 55/100/284 
f 17/42/285 54/98/286 85/137/287 53/96/288 
f 23/51/289 52/95/290 85/137/291 54/98/292 
f 16/39/293 55/100/294 85/137/295 52/95/296 
f 3/8/297 33/64/298 86/138/299 56/102/300 
f 9/26/301 50/92/302 86/138/303 33/64/304 
f 23/51/305 54/98/306 86/138/307 50/92/308 
f 17/42/309 56/102/310 86/138/311 54/98/312 
f 2/6/313 38/73/314 87/139/315 42/80/316 
f 11/29/317 57/103/318 87/139/319 38/73/320 
f 24/52/321 58/104/322 87/139/323 57/103/324 
f 13/34/325 42/80/326 87/139/327 58/104/328 
f 4/10/329 59/105/330 88/140/331 34/67/332 
f 18/44/333 60/107/334 88/140/335 59/105/336 
f 24/52/337 57/103/338 88/140/339 60/107/340 
f 11/29/341 34/67/342 88/140/343 57/103/344 
f 8/22/345 61/108/346 89/141/347 63/112/348 
f 19/46/349 62/110/350 89/141/351 61/108/352 
f 24/52/353 60/107/354 89/141/355 62/110/356 
f 18/44/357 63/112/358 89/141/359 60/107/360 
f 6/17/361 46/85/362 90/142/363 64/114/364 
f 13/34/365 58/104/366 90/142/367 46/85/368 
f 24/52/369 62/110/370 90/142/371 58/104/372 
f 19/46/373 64/114/374 90/142/375 62/110/376 
f 3/9/377 56/101/378 91/143/379 31/62/380 
f 17/41/381 65/115/382 91/143/383 56/101/384 
#end 96 faces
