# XSI Wavefront OBJ Export v3.0
# File Created: Sat Apr 02 10:01:13 2016
# XSI Version: 11.0.525.0
o CilindroPart
# Hierarchy (from self to top father)
g CilindroPart

#begin 16 vertices
v -0.397268 0.023810 0.164554
v -0.397268 1.023810 0.164554
v -0.164554 0.023810 0.397268
v -0.164554 1.023810 0.397268
v 0.164554 0.023810 0.397268
v 0.164554 1.023810 0.397268
v 0.397268 0.023810 0.164554
v 0.397268 1.023810 0.164554
v 0.397268 0.023810 -0.164554
v 0.397268 1.023810 -0.164554
v 0.164554 0.023810 -0.397268
v 0.164554 1.023810 -0.397268
v -0.164554 0.023810 -0.397268
v -0.164554 1.023810 -0.397268
v -0.397268 0.023810 -0.164554
v -0.397268 1.023810 -0.164554
#end 16 vertices

#begin 32 normals
vn -0.923880 0.000000 0.382683
vn -0.382683 0.000000 0.923880
vn -0.382683 0.000000 0.923880
vn -0.923880 0.000000 0.382683
vn -0.382683 0.000000 0.923880
vn 0.382683 0.000000 0.923880
vn 0.382683 0.000000 0.923880
vn -0.382683 0.000000 0.923880
vn 0.382683 0.000000 0.923880
vn 0.923880 0.000000 0.382683
vn 0.923880 0.000000 0.382683
vn 0.382683 0.000000 0.923880
vn 0.923880 0.000000 0.382683
vn 0.923880 0.000000 -0.382683
vn 0.923880 0.000000 -0.382683
vn 0.923880 0.000000 0.382683
vn 0.923880 0.000000 -0.382683
vn 0.382683 0.000000 -0.923880
vn 0.382683 0.000000 -0.923880
vn 0.923880 0.000000 -0.382683
vn 0.382683 0.000000 -0.923880
vn -0.382683 0.000000 -0.923880
vn -0.382683 0.000000 -0.923880
vn 0.382683 0.000000 -0.923880
vn -0.382683 0.000000 -0.923880
vn -0.923880 0.000000 -0.382683
vn -0.923880 0.000000 -0.382683
vn -0.382683 0.000000 -0.923880
vn -0.923880 0.000000 -0.382683
vn -0.923880 0.000000 0.382683
vn -0.923880 0.000000 0.382683
vn -0.923880 0.000000 -0.382683
#end 32 vertex normals

#begin texture vertices
vt 0.375000 0.238280 0.000000
vt 0.375000 0.761720 0.000000
vt 0.500000 0.238280 0.000000
vt 0.500000 0.761720 0.000000
vt 0.625000 0.238280 0.000000
vt 0.625000 0.761720 0.000000
vt 0.750000 0.238280 0.000000
vt 0.750000 0.761720 0.000000
vt 0.875000 0.238280 0.000000
vt 0.875000 0.761720 0.000000
vt 0.000000 0.238280 0.000000
vt 1.000000 0.238280 0.000000
vt 1.000000 0.761720 0.000000
vt 0.000000 0.761720 0.000000
vt 0.125000 0.238280 0.000000
vt 0.125000 0.761720 0.000000
vt 0.250000 0.238280 0.000000
vt 0.250000 0.761720 0.000000
#end 18 texture vertices

#begin 8 faces
f 1/1/1 3/3/2 4/4/3 2/2/4 
f 3/3/5 5/5/6 6/6/7 4/4/8 
f 5/5/9 7/7/10 8/8/11 6/6/12 
f 7/7/13 9/9/14 10/10/15 8/8/16 
f 9/9/17 11/12/18 12/13/19 10/10/20 
f 11/11/21 13/15/22 14/16/23 12/14/24 
f 13/15/25 15/17/26 16/18/27 14/16/28 
f 15/17/29 1/1/30 2/2/31 16/18/32 
#end 8 faces
